<mxfile host="app.diagrams.net" modified="2021-10-25T16:04:16.512Z" agent="5.0 (Windows NT 10.0; Win64; x64) AppleWebKit/537.36 (KHTML, like Gecko) Chrome/94.0.4606.81 Safari/537.36" etag="-7VcuF1PDlM7oQ6FARjk" version="15.4.3" type="github">
  <diagram id="C5RBs43oDa-KdzZeNtuy" name="Page-1">
    <mxGraphModel dx="1422" dy="762" grid="1" gridSize="11" guides="1" tooltips="1" connect="1" arrows="1" fold="1" page="1" pageScale="1" pageWidth="827" pageHeight="1169" math="0" shadow="0">
      <root>
        <mxCell id="WIyWlLk6GJQsqaUBKTNV-0" />
        <mxCell id="WIyWlLk6GJQsqaUBKTNV-1" parent="WIyWlLk6GJQsqaUBKTNV-0" />
        <mxCell id="roGXHVYlXQcU6EGWtktM-5" style="edgeStyle=orthogonalEdgeStyle;rounded=0;orthogonalLoop=1;jettySize=auto;html=1;exitX=0.5;exitY=1;exitDx=0;exitDy=0;" parent="WIyWlLk6GJQsqaUBKTNV-1" source="WIyWlLk6GJQsqaUBKTNV-3" edge="1">
          <mxGeometry relative="1" as="geometry">
            <mxPoint x="400" y="210" as="targetPoint" />
          </mxGeometry>
        </mxCell>
        <mxCell id="pFiqXg84JKidyuTrQ9cq-19" style="edgeStyle=orthogonalEdgeStyle;rounded=0;orthogonalLoop=1;jettySize=auto;html=1;exitX=0.5;exitY=1;exitDx=0;exitDy=0;entryX=0.5;entryY=0;entryDx=0;entryDy=0;" edge="1" parent="WIyWlLk6GJQsqaUBKTNV-1" source="WIyWlLk6GJQsqaUBKTNV-3" target="roGXHVYlXQcU6EGWtktM-7">
          <mxGeometry relative="1" as="geometry" />
        </mxCell>
        <mxCell id="pFiqXg84JKidyuTrQ9cq-20" style="edgeStyle=orthogonalEdgeStyle;rounded=0;orthogonalLoop=1;jettySize=auto;html=1;exitX=0.5;exitY=1;exitDx=0;exitDy=0;" edge="1" parent="WIyWlLk6GJQsqaUBKTNV-1" source="WIyWlLk6GJQsqaUBKTNV-3" target="pFiqXg84JKidyuTrQ9cq-0">
          <mxGeometry relative="1" as="geometry" />
        </mxCell>
        <mxCell id="WIyWlLk6GJQsqaUBKTNV-3" value="로비" style="rounded=1;whiteSpace=wrap;html=1;fontSize=12;glass=0;strokeWidth=1;shadow=0;fillColor=#d5e8d4;strokeColor=#82b366;" parent="WIyWlLk6GJQsqaUBKTNV-1" vertex="1">
          <mxGeometry x="340" y="121" width="120" height="34" as="geometry" />
        </mxCell>
        <mxCell id="pFiqXg84JKidyuTrQ9cq-22" style="edgeStyle=orthogonalEdgeStyle;rounded=0;orthogonalLoop=1;jettySize=auto;html=1;exitX=0.5;exitY=1;exitDx=0;exitDy=0;entryX=1;entryY=0.5;entryDx=0;entryDy=0;" edge="1" parent="WIyWlLk6GJQsqaUBKTNV-1" source="roGXHVYlXQcU6EGWtktM-7" target="pFiqXg84JKidyuTrQ9cq-9">
          <mxGeometry relative="1" as="geometry">
            <mxPoint x="495" y="485" as="targetPoint" />
            <Array as="points">
              <mxPoint x="556" y="482" />
            </Array>
          </mxGeometry>
        </mxCell>
        <mxCell id="roGXHVYlXQcU6EGWtktM-7" value="검색" style="rounded=0;whiteSpace=wrap;html=1;fillColor=#f8cecc;strokeColor=#b85450;" parent="WIyWlLk6GJQsqaUBKTNV-1" vertex="1">
          <mxGeometry x="506" y="210" width="99" height="44" as="geometry" />
        </mxCell>
        <mxCell id="pFiqXg84JKidyuTrQ9cq-1" value="" style="edgeStyle=orthogonalEdgeStyle;rounded=0;orthogonalLoop=1;jettySize=auto;html=1;" edge="1" parent="WIyWlLk6GJQsqaUBKTNV-1" source="roGXHVYlXQcU6EGWtktM-9" target="roGXHVYlXQcU6EGWtktM-10">
          <mxGeometry relative="1" as="geometry" />
        </mxCell>
        <mxCell id="roGXHVYlXQcU6EGWtktM-9" value="국가선택" style="rounded=0;whiteSpace=wrap;html=1;fillColor=#f8cecc;strokeColor=#b85450;" parent="WIyWlLk6GJQsqaUBKTNV-1" vertex="1">
          <mxGeometry x="350.5" y="210" width="99" height="44" as="geometry" />
        </mxCell>
        <mxCell id="pFiqXg84JKidyuTrQ9cq-4" value="" style="edgeStyle=orthogonalEdgeStyle;rounded=0;orthogonalLoop=1;jettySize=auto;html=1;" edge="1" parent="WIyWlLk6GJQsqaUBKTNV-1" source="roGXHVYlXQcU6EGWtktM-10" target="pFiqXg84JKidyuTrQ9cq-3">
          <mxGeometry relative="1" as="geometry" />
        </mxCell>
        <mxCell id="roGXHVYlXQcU6EGWtktM-10" value="입 장" style="rounded=0;whiteSpace=wrap;html=1;fillColor=#f8cecc;strokeColor=#b85450;" parent="WIyWlLk6GJQsqaUBKTNV-1" vertex="1">
          <mxGeometry x="350.5" y="287" width="99" height="44" as="geometry" />
        </mxCell>
        <mxCell id="pFiqXg84JKidyuTrQ9cq-21" style="edgeStyle=orthogonalEdgeStyle;rounded=0;orthogonalLoop=1;jettySize=auto;html=1;exitX=0.5;exitY=1;exitDx=0;exitDy=0;entryX=1;entryY=0.5;entryDx=0;entryDy=0;" edge="1" parent="WIyWlLk6GJQsqaUBKTNV-1" source="pFiqXg84JKidyuTrQ9cq-0" target="pFiqXg84JKidyuTrQ9cq-9">
          <mxGeometry relative="1" as="geometry" />
        </mxCell>
        <mxCell id="pFiqXg84JKidyuTrQ9cq-0" value="랭킹" style="rounded=0;whiteSpace=wrap;html=1;fillColor=#f8cecc;strokeColor=#b85450;" vertex="1" parent="WIyWlLk6GJQsqaUBKTNV-1">
          <mxGeometry x="660" y="210" width="99" height="44" as="geometry" />
        </mxCell>
        <mxCell id="pFiqXg84JKidyuTrQ9cq-11" style="edgeStyle=orthogonalEdgeStyle;rounded=0;orthogonalLoop=1;jettySize=auto;html=1;entryX=0.5;entryY=0;entryDx=0;entryDy=0;" edge="1" parent="WIyWlLk6GJQsqaUBKTNV-1" source="pFiqXg84JKidyuTrQ9cq-3" target="pFiqXg84JKidyuTrQ9cq-7">
          <mxGeometry relative="1" as="geometry" />
        </mxCell>
        <mxCell id="pFiqXg84JKidyuTrQ9cq-12" style="edgeStyle=orthogonalEdgeStyle;rounded=0;orthogonalLoop=1;jettySize=auto;html=1;" edge="1" parent="WIyWlLk6GJQsqaUBKTNV-1" source="pFiqXg84JKidyuTrQ9cq-3" target="pFiqXg84JKidyuTrQ9cq-9">
          <mxGeometry relative="1" as="geometry" />
        </mxCell>
        <mxCell id="pFiqXg84JKidyuTrQ9cq-3" value="국가 지도" style="rounded=1;whiteSpace=wrap;html=1;fontSize=12;glass=0;strokeWidth=1;shadow=0;fillColor=#d5e8d4;strokeColor=#82b366;" vertex="1" parent="WIyWlLk6GJQsqaUBKTNV-1">
          <mxGeometry x="340" y="375" width="120" height="34" as="geometry" />
        </mxCell>
        <mxCell id="pFiqXg84JKidyuTrQ9cq-16" style="edgeStyle=orthogonalEdgeStyle;rounded=0;orthogonalLoop=1;jettySize=auto;html=1;exitX=0.5;exitY=1;exitDx=0;exitDy=0;" edge="1" parent="WIyWlLk6GJQsqaUBKTNV-1" source="pFiqXg84JKidyuTrQ9cq-7">
          <mxGeometry relative="1" as="geometry">
            <mxPoint x="336" y="540" as="targetPoint" />
          </mxGeometry>
        </mxCell>
        <mxCell id="pFiqXg84JKidyuTrQ9cq-7" value="생성" style="rounded=0;whiteSpace=wrap;html=1;fillColor=#f8cecc;strokeColor=#b85450;" vertex="1" parent="WIyWlLk6GJQsqaUBKTNV-1">
          <mxGeometry x="286" y="452" width="99" height="44" as="geometry" />
        </mxCell>
        <mxCell id="pFiqXg84JKidyuTrQ9cq-14" value="" style="edgeStyle=orthogonalEdgeStyle;rounded=0;orthogonalLoop=1;jettySize=auto;html=1;" edge="1" parent="WIyWlLk6GJQsqaUBKTNV-1" source="pFiqXg84JKidyuTrQ9cq-9" target="pFiqXg84JKidyuTrQ9cq-13">
          <mxGeometry relative="1" as="geometry" />
        </mxCell>
        <mxCell id="pFiqXg84JKidyuTrQ9cq-9" value="그룹 외부" style="ellipse;whiteSpace=wrap;html=1;fillColor=#ffe6cc;strokeColor=#d79b00;" vertex="1" parent="WIyWlLk6GJQsqaUBKTNV-1">
          <mxGeometry x="429" y="452" width="66" height="59" as="geometry" />
        </mxCell>
        <mxCell id="pFiqXg84JKidyuTrQ9cq-28" value="" style="edgeStyle=orthogonalEdgeStyle;rounded=0;orthogonalLoop=1;jettySize=auto;html=1;" edge="1" parent="WIyWlLk6GJQsqaUBKTNV-1" source="pFiqXg84JKidyuTrQ9cq-10" target="pFiqXg84JKidyuTrQ9cq-24">
          <mxGeometry relative="1" as="geometry" />
        </mxCell>
        <mxCell id="pFiqXg84JKidyuTrQ9cq-29" style="edgeStyle=orthogonalEdgeStyle;rounded=0;orthogonalLoop=1;jettySize=auto;html=1;entryX=0.5;entryY=0;entryDx=0;entryDy=0;exitX=0.5;exitY=1;exitDx=0;exitDy=0;" edge="1" parent="WIyWlLk6GJQsqaUBKTNV-1" source="pFiqXg84JKidyuTrQ9cq-10" target="pFiqXg84JKidyuTrQ9cq-25">
          <mxGeometry relative="1" as="geometry">
            <Array as="points">
              <mxPoint x="400" y="663" />
              <mxPoint x="556" y="663" />
            </Array>
          </mxGeometry>
        </mxCell>
        <mxCell id="pFiqXg84JKidyuTrQ9cq-30" style="edgeStyle=orthogonalEdgeStyle;rounded=0;orthogonalLoop=1;jettySize=auto;html=1;exitX=0.5;exitY=1;exitDx=0;exitDy=0;" edge="1" parent="WIyWlLk6GJQsqaUBKTNV-1" source="pFiqXg84JKidyuTrQ9cq-10" target="pFiqXg84JKidyuTrQ9cq-26">
          <mxGeometry relative="1" as="geometry">
            <Array as="points">
              <mxPoint x="400" y="663" />
              <mxPoint x="248" y="663" />
            </Array>
          </mxGeometry>
        </mxCell>
        <mxCell id="pFiqXg84JKidyuTrQ9cq-10" value="그룹 내부" style="rounded=1;whiteSpace=wrap;html=1;fontSize=12;glass=0;strokeWidth=1;shadow=0;fillColor=#d5e8d4;strokeColor=#82b366;" vertex="1" parent="WIyWlLk6GJQsqaUBKTNV-1">
          <mxGeometry x="340" y="617" width="120" height="34" as="geometry" />
        </mxCell>
        <mxCell id="pFiqXg84JKidyuTrQ9cq-15" style="edgeStyle=orthogonalEdgeStyle;rounded=0;orthogonalLoop=1;jettySize=auto;html=1;exitX=0.5;exitY=1;exitDx=0;exitDy=0;entryX=0.5;entryY=0;entryDx=0;entryDy=0;" edge="1" parent="WIyWlLk6GJQsqaUBKTNV-1" source="pFiqXg84JKidyuTrQ9cq-13" target="pFiqXg84JKidyuTrQ9cq-10">
          <mxGeometry relative="1" as="geometry" />
        </mxCell>
        <mxCell id="pFiqXg84JKidyuTrQ9cq-13" value="그룹 정보" style="rounded=1;whiteSpace=wrap;html=1;fontSize=12;glass=0;strokeWidth=1;shadow=0;fillColor=#dae8fc;strokeColor=#6c8ebf;" vertex="1" parent="WIyWlLk6GJQsqaUBKTNV-1">
          <mxGeometry x="402" y="540" width="120" height="34" as="geometry" />
        </mxCell>
        <mxCell id="pFiqXg84JKidyuTrQ9cq-18" style="edgeStyle=orthogonalEdgeStyle;rounded=0;orthogonalLoop=1;jettySize=auto;html=1;entryX=0.5;entryY=0;entryDx=0;entryDy=0;" edge="1" parent="WIyWlLk6GJQsqaUBKTNV-1" source="pFiqXg84JKidyuTrQ9cq-17" target="pFiqXg84JKidyuTrQ9cq-10">
          <mxGeometry relative="1" as="geometry" />
        </mxCell>
        <mxCell id="pFiqXg84JKidyuTrQ9cq-17" value="그룹 정보 입력" style="rounded=1;whiteSpace=wrap;html=1;fontSize=12;glass=0;strokeWidth=1;shadow=0;fillColor=#d5e8d4;strokeColor=#82b366;" vertex="1" parent="WIyWlLk6GJQsqaUBKTNV-1">
          <mxGeometry x="275.5" y="540" width="120" height="34" as="geometry" />
        </mxCell>
        <mxCell id="pFiqXg84JKidyuTrQ9cq-24" value="채팅" style="whiteSpace=wrap;html=1;fillColor=#f8cecc;strokeColor=#b85450;" vertex="1" parent="WIyWlLk6GJQsqaUBKTNV-1">
          <mxGeometry x="350.5" y="683" width="99" height="44" as="geometry" />
        </mxCell>
        <mxCell id="pFiqXg84JKidyuTrQ9cq-25" value="투표" style="whiteSpace=wrap;html=1;fillColor=#f8cecc;strokeColor=#b85450;" vertex="1" parent="WIyWlLk6GJQsqaUBKTNV-1">
          <mxGeometry x="506" y="683" width="99" height="44" as="geometry" />
        </mxCell>
        <mxCell id="pFiqXg84JKidyuTrQ9cq-31" style="edgeStyle=orthogonalEdgeStyle;rounded=0;orthogonalLoop=1;jettySize=auto;html=1;entryX=0;entryY=0.5;entryDx=0;entryDy=0;exitX=0;exitY=0.5;exitDx=0;exitDy=0;" edge="1" parent="WIyWlLk6GJQsqaUBKTNV-1" source="pFiqXg84JKidyuTrQ9cq-26" target="pFiqXg84JKidyuTrQ9cq-3">
          <mxGeometry relative="1" as="geometry" />
        </mxCell>
        <mxCell id="pFiqXg84JKidyuTrQ9cq-26" value="퇴장" style="whiteSpace=wrap;html=1;fillColor=#f8cecc;strokeColor=#b85450;" vertex="1" parent="WIyWlLk6GJQsqaUBKTNV-1">
          <mxGeometry x="198" y="683" width="99" height="44" as="geometry" />
        </mxCell>
      </root>
    </mxGraphModel>
  </diagram>
</mxfile>
